<?xml version="1.0" encoding="UTF-8"?>
<svg width="1240px" height="280px" viewBox="0 0 1240 280" version="1.1" xmlns="http://www.w3.org/2000/svg" xmlns:xlink="http://www.w3.org/1999/xlink">
    <!-- Generator: Sketch 41.2 (35397) - http://www.bohemiancoding.com/sketch -->
    <title>Commanders Act NS@3x</title>
    <desc>Created with Sketch.</desc>
    <defs>
        <linearGradient x1="9.26237097%" y1="58.5586386%" x2="45.3305824%" y2="-4.10952306%" id="linearGradient-1">
            <stop stop-color="#F40754" offset="0%"></stop>
            <stop stop-color="#9B0435" offset="100%"></stop>
        </linearGradient>
        <linearGradient x1="50%" y1="1.62228954%" x2="50%" y2="97.8668098%" id="linearGradient-2">
            <stop stop-color="#E4064E" offset="0%"></stop>
            <stop stop-color="#E3084F" offset="100%"></stop>
        </linearGradient>
        <filter x="-50%" y="-50%" width="200%" height="200%" filterUnits="objectBoundingBox" id="filter-3">
            <feGaussianBlur stdDeviation="3" in="SourceGraphic"></feGaussianBlur>
        </filter>
        <linearGradient x1="130.842756%" y1="91.3172705%" x2="3.5125397%" y2="-18.9923871%" id="linearGradient-4">
            <stop stop-color="#CA0545" offset="0%"></stop>
            <stop stop-color="#89042F" offset="100%"></stop>
        </linearGradient>
    </defs>
    <g id="Page-1" stroke="none" stroke-width="1" fill="none" fill-rule="evenodd">
        <g id="Commanders-Act-NS">
            <g id="Group-3" transform="translate(23.000000, 15.000000)">
                <g id="Group" transform="translate(263.000000, 86.000000)">
                    <g id="Group-2">
                        <path d="M56.9648438,54.0058594 L57.0703125,54.3222656 C56.4023404,62.0215229 53.6601803,68.0771264 48.84375,72.4892578 C44.0273197,76.9013892 37.5762123,79.1074219 29.4902344,79.1074219 C20.9472229,79.1074219 14.0566668,76.0224918 8.81835938,69.8525391 C3.58005193,63.6825863 0.9609375,55.6934084 0.9609375,45.8847656 L0.9609375,33.3867188 C0.9609375,23.6132324 3.58005193,15.6240545 8.81835938,9.41894531 C14.0566668,3.21383616 20.9472229,0.111328125 29.4902344,0.111328125 C37.6465252,0.111328125 44.1152105,2.27341588 48.8964844,6.59765625 C53.6777583,10.9218966 56.4023404,17.0038671 57.0703125,24.84375 L56.9648438,25.1601563 L51.0585938,25.1601563 C50.2148395,18.7968432 48.0263849,13.9277513 44.4931641,10.5527344 C40.9599433,7.1777175 35.9590167,5.49023438 29.4902344,5.49023438 C22.7753571,5.49023438 17.3877156,8.09177086 13.3271484,13.2949219 C9.26658126,18.4980729 7.23632813,25.1601156 7.23632813,33.28125 L7.23632813,45.8847656 C7.23632813,54.1113693 9.26658126,60.8173569 13.3271484,66.0029297 C17.3877156,71.1885025 22.7753571,73.78125 29.4902344,73.78125 C35.9590167,73.78125 40.9687322,72.1289228 44.5195313,68.8242188 C48.0703303,65.5195147 50.249996,60.580111 51.0585938,54.0058594 L56.9648438,54.0058594 Z M126.769141,45.8847656 C126.769141,55.7988777 124.053348,63.8144225 118.62168,69.9316406 C113.190012,76.0488587 105.903952,79.1074219 96.7632813,79.1074219 C87.7632363,79.1074219 80.5826441,76.0488587 75.2212892,69.9316406 C69.8599342,63.8144225 67.179297,55.7988777 67.179297,45.8847656 L67.179297,33.3867188 C67.179297,23.5077631 69.8511453,15.4922183 75.194922,9.33984375 C80.5386987,3.18746924 87.710502,0.111328125 96.710547,0.111328125 C105.851218,0.111328125 113.146067,3.18746924 118.595313,9.33984375 C124.044559,15.4922183 126.769141,23.5077631 126.769141,33.3867188 L126.769141,45.8847656 Z M120.49375,33.28125 C120.49375,24.9843335 118.393185,18.3047128 114.191992,13.2421875 C109.990799,8.17966219 104.163709,5.6484375 96.710547,5.6484375 C89.3980104,5.6484375 83.7027549,8.17966219 79.6246095,13.2421875 C75.5464641,18.3047128 73.507422,24.9843335 73.507422,33.28125 L73.507422,45.8847656 C73.507422,54.251995 75.5552531,60.9667716 79.6509767,66.0292969 C83.7467003,71.0918222 89.4507448,73.6230469 96.7632813,73.6230469 C104.2516,73.6230469 110.07869,71.1006112 114.244727,66.0556641 C118.410763,61.010717 120.49375,54.2871514 120.49375,45.8847656 L120.49375,33.28125 Z M149.059766,1.21875 L177.272656,68.8242188 L177.589063,68.8242188 L205.907422,1.21875 L214.239453,1.21875 L214.239453,78 L207.964063,78 L207.964063,44.0917969 L208.491406,10.5 L208.175,10.3945312 L179.645703,78 L175.26875,78 L146.792188,10.7109375 L146.475781,10.7636719 L147.05586,44.0917969 L147.05586,78 L140.780469,78 L140.780469,1.21875 L149.059766,1.21875 Z M240.063282,1.21875 L268.276172,68.8242188 L268.592578,68.8242188 L296.910938,1.21875 L305.242969,1.21875 L305.242969,78 L298.967578,78 L298.967578,44.0917969 L299.494922,10.5 L299.178516,10.3945312 L270.649219,78 L266.272266,78 L237.795703,10.7109375 L237.479297,10.7636719 L238.059375,44.0917969 L238.059375,78 L231.783985,78 L231.783985,1.21875 L240.063282,1.21875 Z M364.975,56.5898438 L329.801172,56.5898438 L321.891016,78 L315.351954,78 L344.514063,1.21875 L350.473047,1.21875 L379.424219,78 L372.885157,78 L364.975,56.5898438 Z M331.910547,50.9472656 L362.91836,50.9472656 L347.625391,9.39257812 L347.308985,9.39257812 L331.910547,50.9472656 Z M445.115235,78 L438.839844,78 L395.228516,11.9765625 L394.91211,12.0292969 L394.91211,78 L388.583985,78 L388.583985,1.21875 L394.91211,1.21875 L438.523438,67.1367188 L438.839844,67.0839844 L438.839844,1.21875 L445.115235,1.21875 L445.115235,78 Z M462.659766,78 L462.659766,1.21875 L484.966407,1.21875 C494.353173,1.21875 502.105048,4.34762496 508.222266,10.6054688 C514.339484,16.8633125 517.398047,24.8964353 517.398047,34.7050781 L517.398047,44.5664062 C517.398047,54.4102055 514.339484,62.4433283 508.222266,68.6660156 C502.105048,74.888703 494.353173,78 484.966407,78 L462.659766,78 Z M468.935157,6.59765625 L468.935157,72.6738281 L484.966407,72.6738281 C492.560195,72.6738281 498.809156,70.0195578 503.713477,64.7109375 C508.617799,59.4023172 511.069922,52.6875406 511.069922,44.5664062 L511.069922,34.546875 C511.069922,26.5312099 508.60901,19.8691672 503.68711,14.5605469 C498.76521,9.25192658 492.525038,6.59765625 484.966407,6.59765625 L468.935157,6.59765625 Z M574.176954,40.8222656 L537.210157,40.8222656 L537.210157,72.6738281 L579.55586,72.6738281 L579.55586,78 L530.934766,78 L530.934766,1.21875 L579.292188,1.21875 L579.292188,6.59765625 L537.210157,6.59765625 L537.210157,35.4433594 L574.176954,35.4433594 L574.176954,40.8222656 Z M596.678516,43.3007813 L596.678516,78 L590.403126,78 L590.403126,1.27148438 L616.401173,1.27148438 C624.627776,1.27148438 630.93826,3.07322417 635.332813,6.67675781 C639.727366,10.2802915 641.92461,15.5448872 641.92461,22.4707031 C641.92461,26.5488485 640.746888,30.196273 638.391407,33.4130859 C636.035926,36.6298989 632.713694,38.9765551 628.42461,40.453125 C633.170728,41.6484435 636.589639,43.7841643 638.681446,46.8603516 C640.773253,49.9365388 641.819141,53.7948987 641.819141,58.4355469 L641.819141,65.6601562 C641.819141,68.0507932 642.100389,70.195303 642.662891,72.09375 C643.225394,73.992197 644.157026,75.5390565 645.457813,76.734375 L645.457813,78 L639.02422,78 C637.723432,76.7343687 636.809378,74.9589958 636.282032,72.6738281 C635.754686,70.3886604 635.491016,68.0156373 635.491016,65.5546875 L635.491016,58.5410156 C635.491016,53.8300546 633.970524,50.1123183 630.929493,47.3876953 C627.888462,44.6630723 623.643387,43.3007813 618.194141,43.3007813 L596.678516,43.3007813 Z M596.678516,37.921875 L615.610157,37.921875 C622.535973,37.921875 627.598422,36.524428 630.797657,33.7294922 C633.996892,30.9345563 635.596485,27.1640862 635.596485,22.4179688 C635.596485,17.3554434 634.005681,13.4619277 630.824024,10.7373047 C627.642368,8.01268169 622.834799,6.65039062 616.401173,6.65039062 L596.678516,6.65039062 L596.678516,37.921875 Z M702.975001,59.1738281 C702.975001,54.9902135 701.410563,51.5713023 698.281641,48.9169922 C695.15272,46.262682 689.703555,43.9160258 681.933985,41.8769531 C673.531599,39.7675676 667.168382,37.0254075 662.844141,33.6503906 C658.519901,30.2753737 656.357813,25.7226849 656.357813,19.9921875 C656.357813,14.1210644 658.774781,9.33986221 663.60879,5.6484375 C668.442798,1.95701279 674.656604,0.111328125 682.250391,0.111328125 C690.160587,0.111328125 696.541383,2.30857178 701.39297,6.703125 C706.244556,11.0976782 708.600002,16.4589527 708.459376,22.7871094 L708.301173,23.1035156 L702.500391,23.1035156 C702.500391,17.9706775 700.681074,13.7519696 697.042384,10.4472656 C693.403694,7.1425616 688.473079,5.49023438 682.250391,5.49023438 C676.098017,5.49023438 671.290448,6.86131441 667.82754,9.60351562 C664.364632,12.3457168 662.633204,15.755839 662.633204,19.8339844 C662.633204,23.7011912 664.232797,26.9267449 667.432032,29.5107422 C670.631267,32.0947395 676.150743,34.3710839 683.990626,36.3398438 C692.252386,38.4492293 698.536503,41.2968571 702.843165,44.8828125 C707.149827,48.4687679 709.303126,53.1972363 709.303126,59.0683594 C709.303126,65.1855775 706.798268,70.0546694 701.788477,73.6757812 C696.778687,77.2968931 690.389102,79.1074219 682.619532,79.1074219 C674.955431,79.1074219 668.267022,77.1826364 662.554102,73.3330078 C656.841183,69.4833792 654.072656,63.8672244 654.248438,56.484375 L654.353907,56.1679688 L660.154688,56.1679688 C660.154688,62.1445611 662.387088,66.5742043 666.851954,69.4570312 C671.31682,72.3398582 676.572627,73.78125 682.619532,73.78125 C688.701594,73.78125 693.614631,72.4453259 697.35879,69.7734375 C701.102949,67.1015491 702.975001,63.5683813 702.975001,59.1738281 Z" id="COMMANDERS-ACT" fill="#3F406B"></path>
                        <path d="M782.360939,63.0761719 L758.15586,63.0761719 L753.831642,78 L735.901954,78 L760.68711,1.21875 L779.829689,1.21875 L804.667579,78 L786.737892,78 L782.360939,63.0761719 Z M762.110939,49.3652344 L778.40586,49.3652344 L770.390235,21.890625 L770.073829,21.890625 L762.110939,49.3652344 Z" id="Combined-Shape" fill="#F40754"></path>
                        <path d="M866.719923,51.0527344 L866.825392,51.3691406 C866.473828,60.3691856 863.810768,67.2421638 858.836134,71.9882812 C853.8615,76.7343987 846.645752,79.1074219 837.188673,79.1074219 C827.696438,79.1074219 819.979718,76.1894823 814.038282,70.3535156 C808.096846,64.5175489 805.126173,56.9414528 805.126173,47.625 L805.126173,31.59375 C805.126173,22.3124536 807.98259,14.7451465 813.695509,8.89160156 C819.408428,3.03805667 826.835112,0.111328125 835.975782,0.111328125 C845.678956,0.111328125 853.09685,2.55466307 858.229689,7.44140625 C863.362527,12.3281494 866.262888,19.2714394 866.930861,28.2714844 L866.825392,28.5878906 L849.475782,28.5878906 C849.229687,23.5956782 848.113488,19.8867309 846.12715,17.4609375 C844.140812,15.0351441 840.757056,13.8222656 835.975782,13.8222656 C831.932793,13.8222656 828.751185,15.4482259 826.430861,18.7001953 C824.110536,21.9521647 822.950392,26.2148174 822.950392,31.4882812 L822.950392,47.625 C822.950392,52.9336203 824.216004,57.2226399 826.747267,60.4921875 C829.278529,63.7617351 832.758963,65.3964844 837.188673,65.3964844 C841.477757,65.3964844 844.518742,64.2539177 846.31172,61.96875 C848.104698,59.6835823 849.124219,56.0449468 849.370314,51.0527344 L866.719923,51.0527344 Z" id="Path" fill="#F40754"></path>
                        <polygon id="Path" fill="#F40754" points="927.295704 14.9296875 907.045704 14.9296875 907.045704 78 889.168751 78 889.168751 14.9296875 869.076954 14.9296875 869.076954 1.21875 927.295704 1.21875"></polygon>
                    </g>
                </g>
                <g id="icon-act">
                    <g id="Group-4">
                        <polygon id="Polygon" fill="#F8F8F8" points="106.679129 0 214.035706 61.0092773 214 183.999878 106.995414 247 0.503467912 184.25 0.5 61.25"></polygon>
                        <polygon id="Combined-Shape" fill="#DCDCDC" points="0 184 0 62 36 82 36 164 107 205 107 247"></polygon>
                    </g>
                    <g id="Group-6" transform="translate(36.000000, 41.000000)">
                        <polygon id="Polygon" fill="url(#linearGradient-1)" points="71 0 71 83 0 123 0 41"></polygon>
                        <polygon id="Polygon" fill="url(#linearGradient-2)" points="71.0019284 82.9876433 142 122.991869 71.0019284 164.039856 0.00385681707 123"></polygon>
                        <polygon id="Polygon-Copy-11" fill-opacity="0.140000001" fill="#000000" filter="url(#filter-3)" points="70.6791289 137.9532 101.930771 120.239963 70.6791289 101.52893 37.1307709 120.239964"></polygon>
                        <polygon id="Polygon" fill="url(#linearGradient-4)" points="71 0 142 41 142 123 71 83"></polygon>
                    </g>
                    <g id="Group-5" transform="translate(77.000000, 89.000000)">
                        <polygon id="Polygon" fill="#F8F8F8" points="30 0 60 16 60 55 30 73.0460205 0 55 0 16"></polygon>
                        <polygon id="Polygon" fill="#DCDCDC" points="30 33 30 73.0460205 0 55.0309448 0 16"></polygon>
                    </g>
                </g>
            </g>
        </g>
    </g>
</svg>